<svg id="b88234e6-1b17-4de9-8f7e-42ae1e47f4e0" data-name="图层 1" xmlns="http://www.w3.org/2000/svg" xmlns:xlink="http://www.w3.org/1999/xlink" viewBox="0 0 99.85 238.13"><defs><style>.aacdd202-20e6-4ef0-978e-e1a4c1d027e1{fill:none;}.bfa70eab-dc7a-4680-bf13-b7e4b11cf7e6{isolation:isolate;}.a1e563e6-11fd-4b79-acd1-d5540cb25b9d{clip-path:url(#b1892d73-eb67-4b2c-bc56-8da52f001158);}.a5b69492-2a03-4bc8-b8fe-8882da1aacc5{fill:#9f2727;}.bd0aa9cb-5cdb-4f7f-a1ca-f06e1bca425d{fill:#a42828;}.e54a2357-fffa-405d-8143-a3bd20ee8f0d{fill:#9a2626;}.afed097d-0cb9-4147-988c-0d7c501fa727{clip-path:url(#bd4b8fdf-0c96-46eb-9b8e-933b0791097f);}.b3ab4e38-8015-4db8-a05a-f754067128a2{fill:#812020;}.b901aa68-b00d-4fde-a8bd-f6ca23a6eea5{fill:#7d1f1f;}.a04bfad1-6a2b-4e68-98ca-e87cb3bb2a67{fill:#9c2626;}.e5498b53-ea27-4966-8738-c5262a8b6777{clip-path:url(#f99d3eb1-81f7-4e17-92d1-5725910082aa);}.f210e219-64b5-4915-baef-363fe786cc71{fill:#952525;}.bed115b9-5ad2-4e4c-ad53-7bf41a04663a{fill:#902323;}.a7141eba-2a26-42b1-87d1-e153aa9542c5{fill:#8b2222;}.e0486883-9d61-4425-8c97-541ae953ab10{fill:#862121;}.a490a2a7-1e74-49e8-be85-52299a05ddc6{fill:#d73535;}</style><clipPath id="b1892d73-eb67-4b2c-bc56-8da52f001158" transform="translate(-2 -1.26)"><path class="aacdd202-20e6-4ef0-978e-e1a4c1d027e1" d="M96.37,2.5l4.34,4.36a3.87,3.87,0,0,1,1.14,2.76L97.51,5.26A3.87,3.87,0,0,0,96.37,2.5Z"/></clipPath><clipPath id="bd4b8fdf-0c96-46eb-9b8e-933b0791097f" transform="translate(-2 -1.26)"><path class="aacdd202-20e6-4ef0-978e-e1a4c1d027e1" d="M7.48,238.16,3.14,233.8a4.27,4.27,0,0,0,3,1.24l4.34,4.35A4.28,4.28,0,0,1,7.48,238.16Z"/></clipPath><clipPath id="f99d3eb1-81f7-4e17-92d1-5725910082aa" transform="translate(-2 -1.26)"><path class="aacdd202-20e6-4ef0-978e-e1a4c1d027e1" d="M95.79,231.05l4.34,4.35a4.13,4.13,0,0,1-4.23,4L91.56,235A4.14,4.14,0,0,0,95.79,231.05Z"/></clipPath></defs><g class="bfa70eab-dc7a-4680-bf13-b7e4b11cf7e6"><g class="bfa70eab-dc7a-4680-bf13-b7e4b11cf7e6"><g class="a1e563e6-11fd-4b79-acd1-d5540cb25b9d"><g class="bfa70eab-dc7a-4680-bf13-b7e4b11cf7e6"><path class="a5b69492-2a03-4bc8-b8fe-8882da1aacc5" d="M96.37,2.5l4.34,4.36a4.19,4.19,0,0,1,.39.45L96.76,3a4.19,4.19,0,0,0-.39-.45" transform="translate(-2 -1.26)"/><path class="bd0aa9cb-5cdb-4f7f-a1ca-f06e1bca425d" d="M96.76,3l4.34,4.36a3.67,3.67,0,0,1,.49.89L97.25,3.85a3.93,3.93,0,0,0-.49-.9" transform="translate(-2 -1.26)"/><path class="a5b69492-2a03-4bc8-b8fe-8882da1aacc5" d="M97.25,3.85l4.34,4.35a4.05,4.05,0,0,1,.25,1L97.49,4.88a3.52,3.52,0,0,0-.24-1" transform="translate(-2 -1.26)"/><path class="e54a2357-fffa-405d-8143-a3bd20ee8f0d" d="M97.49,4.88l4.35,4.36c0,.12,0,.25,0,.38L97.51,5.26a2.36,2.36,0,0,0,0-.38" transform="translate(-2 -1.26)"/></g></g></g><g class="bfa70eab-dc7a-4680-bf13-b7e4b11cf7e6"><g class="afed097d-0cb9-4147-988c-0d7c501fa727"><g class="bfa70eab-dc7a-4680-bf13-b7e4b11cf7e6"><path class="b3ab4e38-8015-4db8-a05a-f754067128a2" d="M6.17,235l4.34,4.35a4.28,4.28,0,0,1-3-1.23L3.14,233.8a4.27,4.27,0,0,0,3,1.24" transform="translate(-2 -1.26)"/></g></g></g><polygon class="b901aa68-b00d-4fde-a8bd-f6ca23a6eea5" points="89.56 233.77 93.91 238.13 8.52 238.13 4.17 233.77 89.56 233.77"/><polygon class="a04bfad1-6a2b-4e68-98ca-e87cb3bb2a67" points="95.51 4 99.85 8.36 98.13 234.14 93.79 229.78 95.51 4"/><g class="bfa70eab-dc7a-4680-bf13-b7e4b11cf7e6"><g class="e5498b53-ea27-4966-8738-c5262a8b6777"><g class="bfa70eab-dc7a-4680-bf13-b7e4b11cf7e6"><path class="e54a2357-fffa-405d-8143-a3bd20ee8f0d" d="M95.79,231.05l4.34,4.35a2.44,2.44,0,0,1,0,.27l-4.34-4.36c0-.08,0-.17,0-.26" transform="translate(-2 -1.26)"/><path class="f210e219-64b5-4915-baef-363fe786cc71" d="M95.78,231.31l4.34,4.36a4.85,4.85,0,0,1-.08.55l-4.34-4.36a4.85,4.85,0,0,0,.08-.55" transform="translate(-2 -1.26)"/><path class="bed115b9-5ad2-4e4c-ad53-7bf41a04663a" d="M95.7,231.86l4.34,4.36a4.48,4.48,0,0,1-.16.52l-4.34-4.36a4.48,4.48,0,0,0,.16-.52" transform="translate(-2 -1.26)"/><path class="a7141eba-2a26-42b1-87d1-e153aa9542c5" d="M95.54,232.38l4.34,4.36a4,4,0,0,1-.24.51L95.3,232.9a4.9,4.9,0,0,0,.24-.52" transform="translate(-2 -1.26)"/><path class="e0486883-9d61-4425-8c97-541ae953ab10" d="M95.3,232.9l4.34,4.35a4.89,4.89,0,0,1-.39.58l-4.35-4.36a4.49,4.49,0,0,0,.4-.57" transform="translate(-2 -1.26)"/><path class="b3ab4e38-8015-4db8-a05a-f754067128a2" d="M94.9,233.47l4.35,4.36a4.32,4.32,0,0,1-3.35,1.56L91.56,235a4.29,4.29,0,0,0,3.34-1.57" transform="translate(-2 -1.26)"/></g></g></g><path class="a490a2a7-1e74-49e8-be85-52299a05ddc6" d="M93.35,1.26a4.07,4.07,0,0,1,4.16,4L95.79,231.05a4.14,4.14,0,0,1-4.23,4H6.17a4.06,4.06,0,0,1-4.17-4L3.72,5.26A4.15,4.15,0,0,1,8,1.26Z" transform="translate(-2 -1.26)"/></g></svg>