<svg id="ed150ade-3e68-48f8-91ad-33474c6e4d13" data-name="图层 1" xmlns="http://www.w3.org/2000/svg" xmlns:xlink="http://www.w3.org/1999/xlink" viewBox="0 0 99.85 238.13"><defs><style>.edc7e2d3-9805-4b7b-bdd6-ca0492c6a8ab{fill:none;}.ab241e22-0ed5-4a4d-989f-679c5d18cf56{isolation:isolate;}.f250f58c-0317-45cc-b0f7-553e3cf6c797{clip-path:url(#fd38bd6e-47d1-425a-8f99-282d27bf9ac6);}.ad940407-f970-4f9b-ad22-2dcdc81842d7{fill:#777;}.b52603b9-52bb-4422-ae77-93c73715d151{fill:#7b7b7b;}.bd211980-9cda-4e68-810a-942b09bb75c0{fill:#737373;}.b035aab4-9307-47d2-93d2-273946caf627{clip-path:url(#b341344d-3308-455a-90df-09d7b4b09a12);}.e7f78347-b746-4cd4-95e8-bdfa6cddbf66{fill:#616161;}.a0e43368-ff1b-4003-9669-d6392d4ecfcd{fill:#5d5d5d;}.a6e2505c-9729-41e5-9914-2139856539b7{fill:#747474;}.f4e123a7-c791-4d0e-9aee-7c7e01af36ae{clip-path:url(#f0e83294-a5ab-4b8f-8dcf-eee40b120458);}.b982f410-0771-4588-90b2-4f3ee45e4abf{fill:#707070;}.a5df46d5-f815-49a1-87a6-865c53870493{fill:#6c6c6c;}.a5dfbf8f-db3a-4e42-b838-655471424c96{fill:#686868;}.b4f1a080-8077-4c21-bddf-598d69d5ff08{fill:#646464;}.a4c70d36-dd71-4422-b47d-869949364fae{fill:#a0a0a0;}</style><clipPath id="fd38bd6e-47d1-425a-8f99-282d27bf9ac6" transform="translate(-2 -1.26)"><path class="edc7e2d3-9805-4b7b-bdd6-ca0492c6a8ab" d="M96.37,2.5l4.34,4.36a3.87,3.87,0,0,1,1.14,2.76L97.51,5.26A3.87,3.87,0,0,0,96.37,2.5Z"/></clipPath><clipPath id="b341344d-3308-455a-90df-09d7b4b09a12" transform="translate(-2 -1.26)"><path class="edc7e2d3-9805-4b7b-bdd6-ca0492c6a8ab" d="M7.48,238.16,3.14,233.8a4.27,4.27,0,0,0,3,1.24l4.34,4.35A4.28,4.28,0,0,1,7.48,238.16Z"/></clipPath><clipPath id="f0e83294-a5ab-4b8f-8dcf-eee40b120458" transform="translate(-2 -1.26)"><path class="edc7e2d3-9805-4b7b-bdd6-ca0492c6a8ab" d="M95.79,231.05l4.34,4.35a4.13,4.13,0,0,1-4.23,4L91.56,235A4.14,4.14,0,0,0,95.79,231.05Z"/></clipPath></defs><g class="ab241e22-0ed5-4a4d-989f-679c5d18cf56"><g class="ab241e22-0ed5-4a4d-989f-679c5d18cf56"><g class="f250f58c-0317-45cc-b0f7-553e3cf6c797"><g class="ab241e22-0ed5-4a4d-989f-679c5d18cf56"><path class="ad940407-f970-4f9b-ad22-2dcdc81842d7" d="M96.37,2.5l4.34,4.36a4.19,4.19,0,0,1,.39.45L96.76,3a4.19,4.19,0,0,0-.39-.45" transform="translate(-2 -1.26)"/><path class="b52603b9-52bb-4422-ae77-93c73715d151" d="M96.76,3l4.34,4.36a3.67,3.67,0,0,1,.49.89L97.25,3.85a3.93,3.93,0,0,0-.49-.9" transform="translate(-2 -1.26)"/><path class="ad940407-f970-4f9b-ad22-2dcdc81842d7" d="M97.25,3.85l4.34,4.35a4.05,4.05,0,0,1,.25,1L97.49,4.88a3.52,3.52,0,0,0-.24-1" transform="translate(-2 -1.26)"/><path class="bd211980-9cda-4e68-810a-942b09bb75c0" d="M97.49,4.88l4.35,4.36c0,.12,0,.25,0,.38L97.51,5.26a2.36,2.36,0,0,0,0-.38" transform="translate(-2 -1.26)"/></g></g></g><g class="ab241e22-0ed5-4a4d-989f-679c5d18cf56"><g class="b035aab4-9307-47d2-93d2-273946caf627"><g class="ab241e22-0ed5-4a4d-989f-679c5d18cf56"><path class="e7f78347-b746-4cd4-95e8-bdfa6cddbf66" d="M6.17,235l4.34,4.35a4.28,4.28,0,0,1-3-1.23L3.14,233.8a4.27,4.27,0,0,0,3,1.24" transform="translate(-2 -1.26)"/></g></g></g><polygon class="a0e43368-ff1b-4003-9669-d6392d4ecfcd" points="89.56 233.77 93.91 238.13 8.52 238.13 4.17 233.77 89.56 233.77"/><polygon class="a6e2505c-9729-41e5-9914-2139856539b7" points="95.51 4 99.85 8.36 98.13 234.14 93.79 229.78 95.51 4"/><g class="ab241e22-0ed5-4a4d-989f-679c5d18cf56"><g class="f4e123a7-c791-4d0e-9aee-7c7e01af36ae"><g class="ab241e22-0ed5-4a4d-989f-679c5d18cf56"><path class="bd211980-9cda-4e68-810a-942b09bb75c0" d="M95.79,231.05l4.34,4.35a2.44,2.44,0,0,1,0,.27l-4.34-4.36c0-.08,0-.17,0-.26" transform="translate(-2 -1.26)"/><path class="b982f410-0771-4588-90b2-4f3ee45e4abf" d="M95.78,231.31l4.34,4.36a4.85,4.85,0,0,1-.08.55l-4.34-4.36a4.85,4.85,0,0,0,.08-.55" transform="translate(-2 -1.26)"/><path class="a5df46d5-f815-49a1-87a6-865c53870493" d="M95.7,231.86l4.34,4.36a4.48,4.48,0,0,1-.16.52l-4.34-4.36a4.48,4.48,0,0,0,.16-.52" transform="translate(-2 -1.26)"/><path class="a5dfbf8f-db3a-4e42-b838-655471424c96" d="M95.54,232.38l4.34,4.36a4,4,0,0,1-.24.51L95.3,232.9a4.9,4.9,0,0,0,.24-.52" transform="translate(-2 -1.26)"/><path class="b4f1a080-8077-4c21-bddf-598d69d5ff08" d="M95.3,232.9l4.34,4.35a4.89,4.89,0,0,1-.39.58l-4.35-4.36a4.49,4.49,0,0,0,.4-.57" transform="translate(-2 -1.26)"/><path class="e7f78347-b746-4cd4-95e8-bdfa6cddbf66" d="M94.9,233.47l4.35,4.36a4.32,4.32,0,0,1-3.35,1.56L91.56,235a4.29,4.29,0,0,0,3.34-1.57" transform="translate(-2 -1.26)"/></g></g></g><path class="a4c70d36-dd71-4422-b47d-869949364fae" d="M93.35,1.26a4.07,4.07,0,0,1,4.16,4L95.79,231.05a4.14,4.14,0,0,1-4.23,4H6.17a4.06,4.06,0,0,1-4.17-4L3.72,5.26A4.15,4.15,0,0,1,8,1.26Z" transform="translate(-2 -1.26)"/></g></svg>