<svg id="a2f12666-161d-4ff2-9e6c-af65bf56a9dd" data-name="图层 1" xmlns="http://www.w3.org/2000/svg" xmlns:xlink="http://www.w3.org/1999/xlink" viewBox="0 0 99.85 238.13"><defs><style>.e8dc3905-2857-48b7-a189-e277e6509704{fill:none;}.b1bd2e2a-1ada-47c5-b7c9-d742bb7526c8{isolation:isolate;}.a05e9172-6a6f-46b9-8198-946609c3de28{clip-path:url(#a2ee8d59-7993-4276-8948-65033c73d1be);}.af56b538-6b1f-4a22-826c-1c4aa8ade65e{fill:#2c8a5f;}.f6cb0053-f05a-4c43-be4f-83ce36a6af60{fill:#2e8f62;}.a5bbc073-de21-478d-bf9b-8acbae7fd98a{fill:#2b865c;}.e37c2dff-045e-4726-8d0c-1af7717a44cf{clip-path:url(#a685cdc6-c979-4116-92b0-a6cce1bedac8);}.ec65aa64-a6aa-40cc-ab46-c502c27ac984{fill:#24704d;}.b65e7a48-d09a-4621-a350-56783788026b{fill:#236c4b;}.ab91e84f-a00e-4c5d-95af-ba562791c1c2{fill:#2b875d;}.ac05ac5f-a13e-414c-a4de-0beb49ba5e82{clip-path:url(#aa1ac62b-7b77-432b-87a6-321db81c4493);}.aa6c54b5-9ae7-4bd0-a2d6-cad782131f96{fill:#298259;}.b4f2a227-ebcf-4d00-9f80-a24f8afeb108{fill:#287d56;}.b0da23de-5574-4f35-b1a5-69c87a036d76{fill:#277953;}.b7b19d62-0ef9-4555-a9a1-071d7a6122ff{fill:#257550;}.be5240e4-c3d6-4e51-80e0-e6c9f49fecd9{fill:#3bba80;}</style><clipPath id="a2ee8d59-7993-4276-8948-65033c73d1be" transform="translate(-2 -1.26)"><path class="e8dc3905-2857-48b7-a189-e277e6509704" d="M96.37,2.5l4.34,4.36a3.87,3.87,0,0,1,1.14,2.76L97.51,5.26A3.87,3.87,0,0,0,96.37,2.5Z"/></clipPath><clipPath id="a685cdc6-c979-4116-92b0-a6cce1bedac8" transform="translate(-2 -1.26)"><path class="e8dc3905-2857-48b7-a189-e277e6509704" d="M7.48,238.16,3.14,233.8a4.27,4.27,0,0,0,3,1.24l4.34,4.35A4.28,4.28,0,0,1,7.48,238.16Z"/></clipPath><clipPath id="aa1ac62b-7b77-432b-87a6-321db81c4493" transform="translate(-2 -1.26)"><path class="e8dc3905-2857-48b7-a189-e277e6509704" d="M95.79,231.05l4.34,4.35a4.13,4.13,0,0,1-4.23,4L91.56,235A4.14,4.14,0,0,0,95.79,231.05Z"/></clipPath></defs><g class="b1bd2e2a-1ada-47c5-b7c9-d742bb7526c8"><g class="b1bd2e2a-1ada-47c5-b7c9-d742bb7526c8"><g class="a05e9172-6a6f-46b9-8198-946609c3de28"><g class="b1bd2e2a-1ada-47c5-b7c9-d742bb7526c8"><path class="af56b538-6b1f-4a22-826c-1c4aa8ade65e" d="M96.37,2.5l4.34,4.36a4.19,4.19,0,0,1,.39.45L96.76,3a4.19,4.19,0,0,0-.39-.45" transform="translate(-2 -1.26)"/><path class="f6cb0053-f05a-4c43-be4f-83ce36a6af60" d="M96.76,3l4.34,4.36a3.67,3.67,0,0,1,.49.89L97.25,3.85a3.93,3.93,0,0,0-.49-.9" transform="translate(-2 -1.26)"/><path class="af56b538-6b1f-4a22-826c-1c4aa8ade65e" d="M97.25,3.85l4.34,4.35a4.05,4.05,0,0,1,.25,1L97.49,4.88a3.52,3.52,0,0,0-.24-1" transform="translate(-2 -1.26)"/><path class="a5bbc073-de21-478d-bf9b-8acbae7fd98a" d="M97.49,4.88l4.35,4.36c0,.12,0,.25,0,.38L97.51,5.26a2.36,2.36,0,0,0,0-.38" transform="translate(-2 -1.26)"/></g></g></g><g class="b1bd2e2a-1ada-47c5-b7c9-d742bb7526c8"><g class="e37c2dff-045e-4726-8d0c-1af7717a44cf"><g class="b1bd2e2a-1ada-47c5-b7c9-d742bb7526c8"><path class="ec65aa64-a6aa-40cc-ab46-c502c27ac984" d="M6.17,235l4.34,4.35a4.28,4.28,0,0,1-3-1.23L3.14,233.8a4.27,4.27,0,0,0,3,1.24" transform="translate(-2 -1.26)"/></g></g></g><polygon class="b65e7a48-d09a-4621-a350-56783788026b" points="89.56 233.77 93.91 238.13 8.52 238.13 4.17 233.77 89.56 233.77"/><polygon class="ab91e84f-a00e-4c5d-95af-ba562791c1c2" points="95.51 4 99.85 8.36 98.13 234.14 93.79 229.78 95.51 4"/><g class="b1bd2e2a-1ada-47c5-b7c9-d742bb7526c8"><g class="ac05ac5f-a13e-414c-a4de-0beb49ba5e82"><g class="b1bd2e2a-1ada-47c5-b7c9-d742bb7526c8"><path class="a5bbc073-de21-478d-bf9b-8acbae7fd98a" d="M95.79,231.05l4.34,4.35a2.44,2.44,0,0,1,0,.27l-4.34-4.36c0-.08,0-.17,0-.26" transform="translate(-2 -1.26)"/><path class="aa6c54b5-9ae7-4bd0-a2d6-cad782131f96" d="M95.78,231.31l4.34,4.36a4.85,4.85,0,0,1-.08.55l-4.34-4.36a4.85,4.85,0,0,0,.08-.55" transform="translate(-2 -1.26)"/><path class="b4f2a227-ebcf-4d00-9f80-a24f8afeb108" d="M95.7,231.86l4.34,4.36a4.48,4.48,0,0,1-.16.52l-4.34-4.36a4.48,4.48,0,0,0,.16-.52" transform="translate(-2 -1.26)"/><path class="b0da23de-5574-4f35-b1a5-69c87a036d76" d="M95.54,232.38l4.34,4.36a4,4,0,0,1-.24.51L95.3,232.9a4.9,4.9,0,0,0,.24-.52" transform="translate(-2 -1.26)"/><path class="b7b19d62-0ef9-4555-a9a1-071d7a6122ff" d="M95.3,232.9l4.34,4.35a4.89,4.89,0,0,1-.39.58l-4.35-4.36a4.49,4.49,0,0,0,.4-.57" transform="translate(-2 -1.26)"/><path class="ec65aa64-a6aa-40cc-ab46-c502c27ac984" d="M94.9,233.47l4.35,4.36a4.32,4.32,0,0,1-3.35,1.56L91.56,235a4.29,4.29,0,0,0,3.34-1.57" transform="translate(-2 -1.26)"/></g></g></g><path class="be5240e4-c3d6-4e51-80e0-e6c9f49fecd9" d="M93.35,1.26a4.07,4.07,0,0,1,4.16,4L95.79,231.05a4.14,4.14,0,0,1-4.23,4H6.17a4.06,4.06,0,0,1-4.17-4L3.72,5.26A4.15,4.15,0,0,1,8,1.26Z" transform="translate(-2 -1.26)"/></g></svg>