<svg id="ed528eb9-4486-41af-ac40-18d866946ba8" data-name="图层 1" xmlns="http://www.w3.org/2000/svg" xmlns:xlink="http://www.w3.org/1999/xlink" viewBox="0 0 169.86 409.48"><defs><style>.e2dbdbac-4c2d-48c2-a519-c29581b68ab8{fill:none;}.bef13670-7b68-4f66-8d9f-f82bcfed7091{isolation:isolate;}.abe31722-eec2-4ba7-bc3e-0169034595f2{clip-path:url(#af74fd83-bab0-4502-a8f8-f2e89855efad);}.bf8cce26-d30d-460d-a011-6e7b584667d1{fill:#0f7fa3;}.ffa2dd7e-9de3-4f46-bce5-c900c2286f10{fill:#0f83a8;}.a24f3101-c2b0-4799-9faf-eede03a593cc{fill:#0e7b9e;}.b9d4d334-ae09-4f1a-a8f6-f7993899a52b{clip-path:url(#f8fbd15f-0626-4de5-bc27-fa013e16e35e);}.ab5defc0-aff2-43f3-8c8c-c208db7d39a5{fill:#0c6785;}.a18555f5-9cff-4e6a-bc24-67daca6c17a4{fill:#0c6480;}.a98bc0f6-e775-483c-b8f9-638585605e41{fill:#0e7c9f;}.a8ab473f-c8b4-4249-b0b3-500d0ac524f8{clip-path:url(#b983c303-b3ee-41b9-b8d5-cb777a0e62dd);}.b5db4a03-1d57-42ee-99f7-e398ddfdbdf7{fill:#0e7799;}.ea48128e-ba72-40f4-bdf7-1dbb8348a468{fill:#0d7394;}.ac096798-2ba2-4bf8-9fac-40ba0535c25c{fill:#0d6f8f;}.a965fa07-bb68-4aee-af0d-72425a7813e7{fill:#0c6b8a;}.f33f2ac4-081e-400a-94cd-660edcdaebb5{fill:#14abdc;}</style><clipPath id="af74fd83-bab0-4502-a8f8-f2e89855efad" transform="translate(-1.5 -4.59)"><path class="e2dbdbac-4c2d-48c2-a519-c29581b68ab8" d="M165,6.73l4.34,4.36a6.65,6.65,0,0,1,2,4.78L167,11.51A6.65,6.65,0,0,0,165,6.73Z"/></clipPath><clipPath id="f8fbd15f-0626-4de5-bc27-fa013e16e35e" transform="translate(-1.5 -4.59)"><path class="e2dbdbac-4c2d-48c2-a519-c29581b68ab8" d="M7.81,411.92l-4.34-4.36a7.37,7.37,0,0,0,5.26,2.15l4.34,4.36A7.43,7.43,0,0,1,7.81,411.92Z"/></clipPath><clipPath id="b983c303-b3ee-41b9-b8d5-cb777a0e62dd" transform="translate(-1.5 -4.59)"><path class="e2dbdbac-4c2d-48c2-a519-c29581b68ab8" d="M164,402.8l4.34,4.35a7.17,7.17,0,0,1-7.33,6.92l-4.34-4.36A7.16,7.16,0,0,0,164,402.8Z"/></clipPath></defs><g class="bef13670-7b68-4f66-8d9f-f82bcfed7091"><g class="bef13670-7b68-4f66-8d9f-f82bcfed7091"><g class="abe31722-eec2-4ba7-bc3e-0169034595f2"><g class="bef13670-7b68-4f66-8d9f-f82bcfed7091"><path class="bf8cce26-d30d-460d-a011-6e7b584667d1" d="M165,6.73l4.34,4.36a9.85,9.85,0,0,1,.67.78l-4.34-4.36a9.85,9.85,0,0,0-.67-.78" transform="translate(-1.5 -4.59)"/><path class="ffa2dd7e-9de3-4f46-bce5-c900c2286f10" d="M165.71,7.51l4.34,4.36a6.69,6.69,0,0,1,.85,1.55l-4.34-4.36a6.69,6.69,0,0,0-.85-1.55" transform="translate(-1.5 -4.59)"/><path class="bf8cce26-d30d-460d-a011-6e7b584667d1" d="M166.56,9.06l4.34,4.36a6.62,6.62,0,0,1,.43,1.78L167,10.85a6.69,6.69,0,0,0-.43-1.79" transform="translate(-1.5 -4.59)"/><path class="a24f3101-c2b0-4799-9faf-eede03a593cc" d="M167,10.85l4.34,4.35a5,5,0,0,1,0,.67L167,11.51a4.85,4.85,0,0,0,0-.66" transform="translate(-1.5 -4.59)"/></g></g></g><g class="bef13670-7b68-4f66-8d9f-f82bcfed7091"><g class="b9d4d334-ae09-4f1a-a8f6-f7993899a52b"><g class="bef13670-7b68-4f66-8d9f-f82bcfed7091"><path class="ab5defc0-aff2-43f3-8c8c-c208db7d39a5" d="M8.73,409.71l4.34,4.36a7.43,7.43,0,0,1-5.26-2.15l-4.34-4.36a7.37,7.37,0,0,0,5.26,2.15" transform="translate(-1.5 -4.59)"/></g></g></g><polygon class="a18555f5-9cff-4e6a-bc24-67daca6c17a4" points="155.2 405.12 159.54 409.48 11.57 409.48 7.23 405.12 155.2 405.12"/><polygon class="a98bc0f6-e775-483c-b8f9-638585605e41" points="165.51 6.92 169.86 11.28 166.87 402.56 162.53 398.2 165.51 6.92"/><g class="bef13670-7b68-4f66-8d9f-f82bcfed7091"><g class="a8ab473f-c8b4-4249-b0b3-500d0ac524f8"><g class="bef13670-7b68-4f66-8d9f-f82bcfed7091"><path class="a24f3101-c2b0-4799-9faf-eede03a593cc" d="M164,402.8l4.34,4.35c0,.16,0,.31,0,.47L164,403.26c0-.15,0-.31,0-.46" transform="translate(-1.5 -4.59)"/><path class="b5db4a03-1d57-42ee-99f7-e398ddfdbdf7" d="M164,403.26l4.34,4.36a6,6,0,0,1-.14.95l-4.34-4.36a6,6,0,0,0,.14-.95" transform="translate(-1.5 -4.59)"/><path class="ea48128e-ba72-40f4-bdf7-1dbb8348a468" d="M163.87,404.21l4.34,4.36a6.14,6.14,0,0,1-.27.89l-4.34-4.35a6.69,6.69,0,0,0,.27-.9" transform="translate(-1.5 -4.59)"/><path class="ac096798-2ba2-4bf8-9fac-40ba0535c25c" d="M163.6,405.11l4.34,4.35a7.36,7.36,0,0,1-.42.9L163.18,406a6.6,6.6,0,0,0,.42-.89" transform="translate(-1.5 -4.59)"/><path class="a965fa07-bb68-4aee-af0d-72425a7813e7" d="M163.18,406l4.34,4.36a7.65,7.65,0,0,1-.68,1L162.5,407a7,7,0,0,0,.68-1" transform="translate(-1.5 -4.59)"/><path class="ab5defc0-aff2-43f3-8c8c-c208db7d39a5" d="M162.5,407l4.34,4.36a7.45,7.45,0,0,1-5.8,2.71l-4.34-4.36a7.48,7.48,0,0,0,5.8-2.71" transform="translate(-1.5 -4.59)"/></g></g></g><path class="f33f2ac4-081e-400a-94cd-660edcdaebb5" d="M159.79,4.59A7,7,0,0,1,167,11.51L164,402.8a7.16,7.16,0,0,1-7.33,6.91H8.73A7,7,0,0,1,1.5,402.8l3-391.29a7.18,7.18,0,0,1,7.34-6.92Z" transform="translate(-1.5 -4.59)"/></g></svg>